<svg xmlns="http://www.w3.org/2000/svg" xmlns:xlink="http://www.w3.org/1999/xlink" width="48" zoomAndPan="magnify" viewBox="0 0 36 36.000001" height="48" preserveAspectRatio="xMidYMid meet" version="1.0"><defs><g/><clipPath id="01cf1aa4c6"><path d="M 2.835938 3.503906 L 33.484375 3.503906 L 33.484375 34.152344 L 2.835938 34.152344 Z M 2.835938 3.503906 " clip-rule="nonzero"/></clipPath></defs><g clip-path="url(#01cf1aa4c6)"><path fill="#ddbad0" d="M 33.484375 18.828125 C 33.484375 19.832031 33.386719 20.828125 33.191406 21.816406 C 32.992188 22.804688 32.703125 23.761719 32.320312 24.691406 C 31.933594 25.621094 31.460938 26.503906 30.902344 27.339844 C 30.34375 28.175781 29.707031 28.953125 28.996094 29.664062 C 28.285156 30.375 27.511719 31.007812 26.675781 31.570312 C 25.835938 32.128906 24.953125 32.601562 24.023438 32.984375 C 23.09375 33.371094 22.136719 33.660156 21.148438 33.855469 C 20.164062 34.054688 19.167969 34.152344 18.160156 34.152344 C 17.15625 34.152344 16.15625 34.054688 15.171875 33.855469 C 14.183594 33.660156 13.226562 33.371094 12.296875 32.984375 C 11.367188 32.601562 10.484375 32.128906 9.648438 31.570312 C 8.808594 31.007812 8.035156 30.375 7.324219 29.664062 C 6.613281 28.953125 5.976562 28.175781 5.417969 27.339844 C 4.859375 26.503906 4.386719 25.621094 4.003906 24.691406 C 3.617188 23.761719 3.328125 22.804688 3.128906 21.816406 C 2.933594 20.828125 2.835938 19.832031 2.835938 18.828125 C 2.835938 17.820312 2.933594 16.824219 3.128906 15.835938 C 3.328125 14.851562 3.617188 13.890625 4.003906 12.960938 C 4.386719 12.03125 4.859375 11.148438 5.417969 10.3125 C 5.976562 9.476562 6.613281 8.703125 7.324219 7.992188 C 8.035156 7.28125 8.808594 6.644531 9.648438 6.085938 C 10.484375 5.527344 11.367188 5.054688 12.296875 4.667969 C 13.226562 4.285156 14.183594 3.992188 15.171875 3.796875 C 16.15625 3.601562 17.15625 3.503906 18.160156 3.503906 C 19.167969 3.503906 20.164062 3.601562 21.148438 3.796875 C 22.136719 3.992188 23.09375 4.285156 24.023438 4.667969 C 24.953125 5.054688 25.835938 5.527344 26.675781 6.085938 C 27.511719 6.644531 28.285156 7.28125 28.996094 7.992188 C 29.707031 8.703125 30.34375 9.476562 30.902344 10.3125 C 31.460938 11.148438 31.933594 12.03125 32.320312 12.960938 C 32.703125 13.890625 32.992188 14.851562 33.191406 15.835938 C 33.386719 16.824219 33.484375 17.820312 33.484375 18.828125 Z M 33.484375 18.828125 " fill-opacity="1" fill-rule="nonzero"/></g><path fill="#000000" d="M 12.851562 23.011719 L 12.851562 19.660156 C 13.21875 19.660156 14.320312 19.636719 14.625 19.691406 C 15.542969 19.855469 15.574219 20.882812 15.144531 21.359375 C 14.785156 21.734375 13.910156 21.648438 13.292969 21.648438 L 13.292969 23.011719 Z M 21.199219 9.679688 L 25.308594 13.789062 C 25.351562 13.808594 25.375 13.863281 25.382812 13.917969 C 25.382812 13.9375 25.382812 13.949219 25.382812 13.960938 L 25.382812 26.960938 C 25.382812 27.25 25.265625 27.53125 25.070312 27.726562 C 24.867188 27.933594 24.59375 28.050781 24.292969 28.050781 L 12.019531 28.050781 C 11.726562 28.050781 11.445312 27.933594 11.25 27.726562 C 11.042969 27.53125 10.925781 27.25 10.925781 26.960938 L 10.925781 10.695312 C 10.925781 10.089844 11.421875 9.589844 12.019531 9.589844 L 21.027344 9.589844 C 21.039062 9.589844 21.039062 9.589844 21.039062 9.589844 L 21.046875 9.589844 C 21.125 9.601562 21.167969 9.632812 21.199219 9.679688 Z M 12.527344 15.171875 C 12.246094 15.171875 12.246094 15.605469 12.527344 15.605469 L 21.835938 15.605469 C 22.117188 15.605469 22.117188 15.171875 21.835938 15.171875 Z M 24.953125 14.175781 L 21.902344 14.175781 C 21.308594 14.175781 20.808594 13.679688 20.808594 13.074219 L 20.808594 10.023438 L 12.019531 10.023438 C 11.648438 10.023438 11.359375 10.328125 11.359375 10.695312 L 11.359375 18.230469 L 22.355469 18.230469 C 22.648438 18.230469 22.917969 18.351562 23.113281 18.546875 C 23.308594 18.742188 23.4375 19.011719 23.4375 19.3125 L 23.4375 23.359375 C 23.4375 23.660156 23.308594 23.929688 23.113281 24.125 C 22.917969 24.320312 22.648438 24.441406 22.355469 24.441406 L 11.359375 24.441406 L 11.359375 26.960938 C 11.359375 27.144531 11.433594 27.304688 11.554688 27.425781 C 11.671875 27.542969 11.835938 27.621094 12.019531 27.621094 L 24.292969 27.621094 C 24.476562 27.621094 24.636719 27.542969 24.757812 27.425781 C 24.875 27.304688 24.953125 27.132812 24.953125 26.960938 Z M 12.527344 16.828125 C 12.246094 16.828125 12.246094 17.257812 12.527344 17.257812 L 21.835938 17.257812 C 22.117188 17.257812 22.117188 16.828125 21.835938 16.828125 Z M 22.355469 18.664062 L 11.359375 18.664062 L 11.359375 24.007812 L 22.355469 24.007812 C 22.53125 24.007812 22.691406 23.941406 22.8125 23.824219 C 22.929688 23.703125 23.003906 23.542969 23.003906 23.359375 L 23.003906 19.3125 C 23.003906 19.128906 22.929688 18.96875 22.8125 18.847656 C 22.691406 18.730469 22.53125 18.664062 22.355469 18.664062 Z M 24.648438 13.746094 L 21.242188 10.335938 L 21.242188 13.074219 C 21.242188 13.441406 21.546875 13.746094 21.902344 13.746094 Z M 13.292969 21.25 C 13.726562 21.25 14.515625 21.324219 14.777344 21.097656 C 15.066406 20.839844 15.011719 20.199219 14.570312 20.082031 C 14.398438 20.039062 13.53125 20.058594 13.292969 20.058594 Z M 15.976562 23.011719 L 15.976562 19.660156 C 16.367188 19.660156 17.402344 19.636719 17.726562 19.714844 C 19.035156 20.003906 19.003906 22.191406 18.117188 22.785156 C 17.859375 22.957031 17.523438 23.011719 17.1875 23.011719 Z M 16.417969 22.613281 C 17.285156 22.613281 17.933594 22.753906 18.203125 21.953125 C 18.375 21.410156 18.34375 20.382812 17.695312 20.125 C 17.445312 20.027344 16.753906 20.058594 16.417969 20.058594 Z M 19.339844 23.011719 L 19.339844 19.660156 L 20.59375 19.660156 C 21.015625 19.660156 21.371094 19.746094 21.578125 20.082031 C 21.835938 20.503906 21.695312 21 21.230469 21.226562 C 22.128906 21.488281 22.066406 22.730469 21.15625 22.957031 C 20.800781 23.042969 19.761719 23.011719 19.339844 23.011719 Z M 19.78125 21.066406 C 20.03125 21.066406 20.734375 21.085938 20.929688 21.035156 C 21.414062 20.882812 21.339844 20.222656 20.960938 20.101562 C 20.746094 20.039062 20.0625 20.058594 19.78125 20.058594 Z M 19.78125 22.613281 C 19.976562 22.613281 20.777344 22.621094 20.917969 22.601562 C 21.578125 22.480469 21.535156 21.683594 21.046875 21.519531 C 20.800781 21.445312 20.097656 21.464844 19.78125 21.464844 Z M 19.78125 22.613281 " fill-opacity="1" fill-rule="nonzero"/><path fill="#ffb701" d="M 20.59375 19.660156 C 21.015625 19.660156 21.371094 19.746094 21.578125 20.082031 C 21.835938 20.503906 21.695312 21 21.230469 21.226562 C 22.128906 21.488281 22.066406 22.730469 21.15625 22.957031 C 20.800781 23.042969 19.761719 23.011719 19.339844 23.011719 L 19.339844 19.660156 Z M 17.726562 19.714844 C 19.035156 20.003906 19.003906 22.191406 18.117188 22.785156 C 17.859375 22.957031 17.523438 23.011719 17.1875 23.011719 L 15.976562 23.011719 L 15.976562 19.660156 C 16.367188 19.660156 17.402344 19.636719 17.726562 19.714844 Z M 14.625 19.691406 C 15.542969 19.855469 15.574219 20.882812 15.144531 21.359375 C 14.785156 21.734375 13.910156 21.648438 13.292969 21.648438 L 13.292969 23.011719 L 12.851562 23.011719 L 12.851562 19.660156 C 13.21875 19.660156 14.320312 19.636719 14.625 19.691406 Z M 22.8125 18.847656 C 22.691406 18.730469 22.53125 18.664062 22.355469 18.664062 L 11.359375 18.664062 L 11.359375 24.007812 L 22.355469 24.007812 C 22.53125 24.007812 22.691406 23.941406 22.8125 23.824219 C 22.929688 23.703125 23.003906 23.542969 23.003906 23.359375 L 23.003906 19.3125 C 23.003906 19.128906 22.929688 18.96875 22.8125 18.847656 Z M 22.8125 18.847656 " fill-opacity="1" fill-rule="evenodd"/><path fill="#ffb701" d="M 21.046875 21.519531 C 20.800781 21.445312 20.097656 21.464844 19.78125 21.464844 L 19.78125 22.613281 C 19.976562 22.613281 20.777344 22.621094 20.917969 22.601562 C 21.578125 22.480469 21.535156 21.683594 21.046875 21.519531 Z M 21.046875 21.519531 " fill-opacity="1" fill-rule="evenodd"/><path stroke-linecap="butt" transform="matrix(0.0108146, 0, 0, 0.0108146, 2.836217, 3.502704)" fill-opacity="1" fill="#ffb701" fill-rule="evenodd" stroke-linejoin="miter" d="M 1566.862811 1624.069462 C 1589.979655 1624.069462 1654.995781 1625.875466 1673.055815 1621.179857 C 1717.844702 1607.093029 1710.981888 1546.050112 1675.945421 1534.85289 C 1656.079383 1529.073679 1592.869261 1530.879683 1566.862811 1530.879683 Z M 1566.862811 1624.069462 " stroke="#ffb701" stroke-width="3" stroke-opacity="1" stroke-miterlimit="4"/><path fill="#ffb701" d="M 18.203125 21.953125 C 18.375 21.410156 18.34375 20.382812 17.695312 20.125 C 17.445312 20.027344 16.753906 20.058594 16.417969 20.058594 L 16.417969 22.613281 C 17.285156 22.613281 17.933594 22.753906 18.203125 21.953125 Z M 18.203125 21.953125 " fill-opacity="1" fill-rule="evenodd"/><path fill="#ffb701" d="M 14.777344 21.097656 C 15.066406 20.839844 15.011719 20.199219 14.570312 20.082031 C 14.398438 20.039062 13.53125 20.058594 13.292969 20.058594 L 13.292969 21.25 C 13.726562 21.25 14.515625 21.324219 14.777344 21.097656 Z M 14.777344 21.097656 " fill-opacity="1" fill-rule="evenodd"/><path fill="#b5b5b5" d="M 21.902344 13.746094 L 24.648438 13.746094 L 21.242188 10.335938 L 21.242188 13.074219 C 21.242188 13.441406 21.546875 13.746094 21.902344 13.746094 Z M 21.902344 13.746094 " fill-opacity="1" fill-rule="evenodd"/><path fill="#dfdfdf" d="M 22.355469 24.441406 L 11.359375 24.441406 L 11.359375 26.960938 C 11.359375 27.144531 11.433594 27.304688 11.554688 27.425781 C 11.671875 27.542969 11.835938 27.621094 12.019531 27.621094 L 24.292969 27.621094 C 24.476562 27.621094 24.636719 27.542969 24.757812 27.425781 C 24.875 27.304688 24.953125 27.132812 24.953125 26.960938 L 24.953125 14.175781 L 21.902344 14.175781 C 21.308594 14.175781 20.808594 13.679688 20.808594 13.074219 L 20.808594 10.023438 L 12.019531 10.023438 C 11.648438 10.023438 11.359375 10.328125 11.359375 10.695312 L 11.359375 18.230469 L 22.355469 18.230469 C 22.648438 18.230469 22.917969 18.351562 23.113281 18.546875 C 23.308594 18.742188 23.4375 19.011719 23.4375 19.3125 L 23.4375 23.359375 C 23.4375 23.660156 23.308594 23.929688 23.113281 24.125 C 22.917969 24.320312 22.648438 24.441406 22.355469 24.441406 Z M 12.527344 17.257812 C 12.246094 17.257812 12.246094 16.828125 12.527344 16.828125 L 21.835938 16.828125 C 22.117188 16.828125 22.117188 17.257812 21.835938 17.257812 Z M 12.527344 15.605469 C 12.246094 15.605469 12.246094 15.171875 12.527344 15.171875 L 21.835938 15.171875 C 22.117188 15.171875 22.117188 15.605469 21.835938 15.605469 Z M 12.527344 15.605469 " fill-opacity="1" fill-rule="evenodd"/><g fill="#ffffff" fill-opacity="1"><g transform="translate(30.294931, 31.47568)"><g><path d="M 0.25 0.015625 C 0.21875 0.015625 0.191406 0.00390625 0.171875 -0.015625 C 0.148438 -0.0351562 0.140625 -0.0664062 0.140625 -0.109375 C 0.140625 -0.140625 0.148438 -0.164062 0.171875 -0.1875 C 0.191406 -0.207031 0.21875 -0.21875 0.25 -0.21875 C 0.289062 -0.21875 0.320312 -0.207031 0.34375 -0.1875 C 0.363281 -0.164062 0.375 -0.140625 0.375 -0.109375 C 0.375 -0.0664062 0.363281 -0.0351562 0.34375 -0.015625 C 0.320312 0.00390625 0.289062 0.015625 0.25 0.015625 Z M 0.25 0.015625 "/></g></g></g></svg>