<svg xmlns="http://www.w3.org/2000/svg" xmlns:xlink="http://www.w3.org/1999/xlink" width="500" zoomAndPan="magnify" viewBox="0 0 375 374.999991" height="500" preserveAspectRatio="xMidYMid meet" version="1.0"><defs><g/><clipPath id="ca80c9bad0"><path d="M 21.667969 21.667969 L 353.167969 21.667969 L 353.167969 353.167969 L 21.667969 353.167969 Z M 21.667969 21.667969 " clip-rule="nonzero"/></clipPath></defs><g clip-path="url(#ca80c9bad0)"><path fill="#f9e574" d="M 353.167969 187.417969 C 353.167969 190.132812 353.101562 192.84375 352.96875 195.550781 C 352.835938 198.261719 352.636719 200.964844 352.371094 203.664062 C 352.105469 206.363281 351.773438 209.054688 351.375 211.738281 C 350.976562 214.421875 350.511719 217.09375 349.984375 219.753906 C 349.453125 222.414062 348.859375 225.0625 348.199219 227.691406 C 347.542969 230.324219 346.820312 232.9375 346.03125 235.53125 C 345.242188 238.128906 344.394531 240.703125 343.480469 243.257812 C 342.566406 245.8125 341.589844 248.34375 340.550781 250.847656 C 339.511719 253.355469 338.414062 255.832031 337.253906 258.285156 C 336.09375 260.738281 334.875 263.160156 333.597656 265.550781 C 332.316406 267.945312 330.980469 270.304688 329.585938 272.628906 C 328.191406 274.957031 326.742188 277.25 325.234375 279.503906 C 323.726562 281.757812 322.164062 283.976562 320.550781 286.15625 C 318.933594 288.335938 317.265625 290.472656 315.542969 292.570312 C 313.824219 294.664062 312.050781 296.71875 310.230469 298.730469 C 308.410156 300.738281 306.539062 302.703125 304.621094 304.621094 C 302.703125 306.539062 300.738281 308.410156 298.730469 310.230469 C 296.71875 312.050781 294.664062 313.824219 292.570312 315.542969 C 290.472656 317.265625 288.335938 318.933594 286.15625 320.550781 C 283.976562 322.164062 281.757812 323.726562 279.503906 325.234375 C 277.25 326.742188 274.957031 328.191406 272.628906 329.585938 C 270.304688 330.980469 267.945312 332.316406 265.550781 333.597656 C 263.160156 334.875 260.738281 336.09375 258.285156 337.253906 C 255.832031 338.414062 253.355469 339.511719 250.847656 340.550781 C 248.34375 341.589844 245.8125 342.566406 243.257812 343.480469 C 240.703125 344.394531 238.128906 345.242188 235.53125 346.03125 C 232.9375 346.820312 230.324219 347.542969 227.691406 348.199219 C 225.0625 348.859375 222.414062 349.453125 219.753906 349.984375 C 217.09375 350.511719 214.421875 350.976562 211.738281 351.375 C 209.054688 351.773438 206.363281 352.105469 203.664062 352.371094 C 200.964844 352.636719 198.261719 352.835938 195.550781 352.96875 C 192.84375 353.101562 190.132812 353.167969 187.417969 353.167969 C 184.707031 353.167969 181.996094 353.101562 179.285156 352.96875 C 176.574219 352.835938 173.871094 352.636719 171.171875 352.371094 C 168.472656 352.105469 165.78125 351.773438 163.097656 351.375 C 160.414062 350.976562 157.742188 350.511719 155.082031 349.984375 C 152.421875 349.453125 149.777344 348.859375 147.144531 348.199219 C 144.511719 347.542969 141.898438 346.820312 139.304688 346.03125 C 136.707031 345.242188 134.132812 344.394531 131.578125 343.480469 C 129.023438 342.566406 126.496094 341.589844 123.988281 340.550781 C 121.480469 339.511719 119.003906 338.414062 116.550781 337.253906 C 114.097656 336.09375 111.675781 334.875 109.285156 333.597656 C 106.890625 332.316406 104.53125 330.980469 102.207031 329.585938 C 99.878906 328.191406 97.589844 326.742188 95.332031 325.234375 C 93.078125 323.726562 90.859375 322.164062 88.679688 320.550781 C 86.503906 318.933594 84.363281 317.265625 82.269531 315.542969 C 80.171875 313.824219 78.117188 312.050781 76.105469 310.230469 C 74.097656 308.410156 72.132812 306.539062 70.214844 304.621094 C 68.296875 302.703125 66.425781 300.738281 64.605469 298.730469 C 62.785156 296.71875 61.011719 294.664062 59.292969 292.570312 C 57.570312 290.472656 55.902344 288.335938 54.285156 286.15625 C 52.671875 283.976562 51.109375 281.757812 49.601562 279.503906 C 48.09375 277.25 46.644531 274.957031 45.25 272.628906 C 43.855469 270.304688 42.519531 267.945312 41.238281 265.550781 C 39.960938 263.160156 38.742188 260.738281 37.582031 258.285156 C 36.421875 255.832031 35.324219 253.355469 34.285156 250.847656 C 33.246094 248.34375 32.269531 245.8125 31.355469 243.257812 C 30.445312 240.703125 29.59375 238.128906 28.804688 235.53125 C 28.019531 232.9375 27.292969 230.324219 26.636719 227.691406 C 25.976562 225.0625 25.382812 222.414062 24.851562 219.753906 C 24.324219 217.09375 23.859375 214.421875 23.460938 211.738281 C 23.0625 209.054688 22.730469 206.363281 22.464844 203.664062 C 22.199219 200.964844 22 198.261719 21.867188 195.550781 C 21.734375 192.84375 21.667969 190.132812 21.667969 187.417969 C 21.667969 184.707031 21.734375 181.996094 21.867188 179.285156 C 22 176.574219 22.199219 173.871094 22.464844 171.171875 C 22.730469 168.472656 23.0625 165.78125 23.460938 163.097656 C 23.859375 160.414062 24.324219 157.742188 24.851562 155.082031 C 25.382812 152.421875 25.976562 149.777344 26.636719 147.144531 C 27.292969 144.511719 28.019531 141.898438 28.804688 139.304688 C 29.59375 136.707031 30.445312 134.132812 31.355469 131.578125 C 32.269531 129.023438 33.246094 126.496094 34.285156 123.988281 C 35.324219 121.480469 36.421875 119.003906 37.582031 116.550781 C 38.742188 114.097656 39.960938 111.675781 41.238281 109.285156 C 42.519531 106.890625 43.855469 104.53125 45.25 102.207031 C 46.644531 99.878906 48.09375 97.589844 49.601562 95.332031 C 51.109375 93.078125 52.671875 90.859375 54.285156 88.679688 C 55.902344 86.503906 57.570312 84.363281 59.292969 82.269531 C 61.011719 80.171875 62.785156 78.117188 64.605469 76.105469 C 66.425781 74.097656 68.296875 72.132812 70.214844 70.214844 C 72.132812 68.296875 74.097656 66.425781 76.105469 64.605469 C 78.117188 62.785156 80.171875 61.011719 82.269531 59.292969 C 84.363281 57.570312 86.503906 55.902344 88.679688 54.285156 C 90.859375 52.671875 93.078125 51.109375 95.332031 49.601562 C 97.589844 48.09375 99.878906 46.644531 102.207031 45.25 C 104.53125 43.855469 106.890625 42.519531 109.285156 41.238281 C 111.675781 39.960938 114.097656 38.742188 116.550781 37.582031 C 119.003906 36.421875 121.480469 35.324219 123.988281 34.285156 C 126.496094 33.246094 129.023438 32.269531 131.578125 31.355469 C 134.132812 30.445312 136.707031 29.59375 139.304688 28.804688 C 141.898438 28.019531 144.511719 27.292969 147.144531 26.636719 C 149.777344 25.976562 152.421875 25.382812 155.082031 24.851562 C 157.742188 24.324219 160.414062 23.859375 163.097656 23.460938 C 165.78125 23.0625 168.472656 22.730469 171.171875 22.464844 C 173.871094 22.199219 176.574219 22 179.285156 21.867188 C 181.996094 21.734375 184.707031 21.667969 187.417969 21.667969 C 190.132812 21.667969 192.84375 21.734375 195.550781 21.867188 C 198.261719 22 200.964844 22.199219 203.664062 22.464844 C 206.363281 22.730469 209.054688 23.0625 211.738281 23.460938 C 214.421875 23.859375 217.09375 24.324219 219.753906 24.851562 C 222.414062 25.382812 225.0625 25.976562 227.691406 26.636719 C 230.324219 27.292969 232.9375 28.019531 235.53125 28.804688 C 238.128906 29.59375 240.703125 30.445312 243.257812 31.355469 C 245.8125 32.269531 248.34375 33.246094 250.847656 34.285156 C 253.355469 35.324219 255.832031 36.421875 258.285156 37.582031 C 260.738281 38.742188 263.160156 39.960938 265.550781 41.238281 C 267.945312 42.519531 270.304688 43.855469 272.628906 45.25 C 274.957031 46.644531 277.25 48.09375 279.503906 49.601562 C 281.757812 51.109375 283.976562 52.671875 286.15625 54.285156 C 288.335938 55.902344 290.472656 57.570312 292.570312 59.292969 C 294.664062 61.011719 296.71875 62.785156 298.730469 64.605469 C 300.738281 66.425781 302.703125 68.296875 304.621094 70.214844 C 306.539062 72.132812 308.410156 74.097656 310.230469 76.105469 C 312.050781 78.117188 313.824219 80.171875 315.542969 82.269531 C 317.265625 84.363281 318.933594 86.503906 320.550781 88.679688 C 322.164062 90.859375 323.726562 93.078125 325.234375 95.332031 C 326.742188 97.589844 328.191406 99.878906 329.585938 102.207031 C 330.980469 104.53125 332.316406 106.890625 333.597656 109.285156 C 334.875 111.675781 336.09375 114.097656 337.253906 116.550781 C 338.414062 119.003906 339.511719 121.480469 340.550781 123.988281 C 341.589844 126.496094 342.566406 129.023438 343.480469 131.578125 C 344.394531 134.132812 345.242188 136.707031 346.03125 139.304688 C 346.820312 141.898438 347.542969 144.511719 348.199219 147.144531 C 348.859375 149.777344 349.453125 152.421875 349.984375 155.082031 C 350.511719 157.742188 350.976562 160.414062 351.375 163.097656 C 351.773438 165.78125 352.105469 168.472656 352.371094 171.171875 C 352.636719 173.871094 352.835938 176.574219 352.96875 179.285156 C 353.101562 181.996094 353.167969 184.707031 353.167969 187.417969 Z M 353.167969 187.417969 " fill-opacity="1" fill-rule="nonzero"/></g><path fill="#fccb6c" d="M 344.761719 187.417969 C 344.761719 189.992188 344.699219 192.566406 344.574219 195.140625 C 344.449219 197.710938 344.257812 200.277344 344.003906 202.839844 C 343.753906 205.402344 343.4375 207.957031 343.058594 210.503906 C 342.683594 213.054688 342.242188 215.589844 341.738281 218.113281 C 341.238281 220.640625 340.671875 223.152344 340.046875 225.648438 C 339.421875 228.148438 338.734375 230.628906 337.988281 233.09375 C 337.242188 235.558594 336.433594 238 335.566406 240.425781 C 334.699219 242.851562 333.769531 245.253906 332.785156 247.632812 C 331.800781 250.011719 330.757812 252.363281 329.65625 254.691406 C 328.554688 257.019531 327.398438 259.320312 326.183594 261.589844 C 324.96875 263.859375 323.703125 266.101562 322.378906 268.308594 C 321.054688 270.519531 319.675781 272.691406 318.246094 274.835938 C 316.816406 276.976562 315.332031 279.082031 313.800781 281.148438 C 312.265625 283.21875 310.679688 285.246094 309.046875 287.238281 C 307.414062 289.226562 305.734375 291.175781 304.003906 293.085938 C 302.273438 294.992188 300.5 296.855469 298.679688 298.679688 C 296.855469 300.5 294.992188 302.273438 293.085938 304.003906 C 291.175781 305.734375 289.226562 307.414062 287.238281 309.046875 C 285.246094 310.679688 283.21875 312.265625 281.148438 313.800781 C 279.082031 315.332031 276.976562 316.816406 274.835938 318.246094 C 272.691406 319.675781 270.519531 321.054688 268.308594 322.378906 C 266.101562 323.703125 263.859375 324.96875 261.589844 326.183594 C 259.320312 327.398438 257.019531 328.554688 254.691406 329.65625 C 252.363281 330.757812 250.011719 331.800781 247.632812 332.785156 C 245.253906 333.769531 242.851562 334.699219 240.425781 335.566406 C 238 336.433594 235.558594 337.242188 233.09375 337.988281 C 230.628906 338.734375 228.148438 339.421875 225.648438 340.046875 C 223.152344 340.671875 220.640625 341.238281 218.113281 341.738281 C 215.589844 342.242188 213.054688 342.683594 210.503906 343.058594 C 207.957031 343.4375 205.402344 343.753906 202.839844 344.003906 C 200.277344 344.257812 197.710938 344.449219 195.140625 344.574219 C 192.566406 344.699219 189.992188 344.761719 187.417969 344.761719 C 184.84375 344.761719 182.269531 344.699219 179.699219 344.574219 C 177.125 344.449219 174.558594 344.257812 171.996094 344.003906 C 169.433594 343.753906 166.878906 343.4375 164.332031 343.058594 C 161.785156 342.683594 159.246094 342.242188 156.722656 341.738281 C 154.195312 341.238281 151.683594 340.671875 149.1875 340.046875 C 146.6875 339.421875 144.207031 338.734375 141.742188 337.988281 C 139.277344 337.242188 136.835938 336.433594 134.410156 335.566406 C 131.984375 334.699219 129.585938 333.769531 127.203125 332.785156 C 124.824219 331.800781 122.472656 330.757812 120.144531 329.65625 C 117.816406 328.554688 115.515625 327.398438 113.246094 326.183594 C 110.976562 324.96875 108.734375 323.703125 106.527344 322.378906 C 104.316406 321.054688 102.144531 319.675781 100.003906 318.246094 C 97.859375 316.816406 95.757812 315.332031 93.6875 313.800781 C 91.621094 312.265625 89.589844 310.679688 87.601562 309.046875 C 85.609375 307.414062 83.660156 305.734375 81.75 304.003906 C 79.84375 302.273438 77.980469 300.5 76.160156 298.679688 C 74.335938 296.855469 72.5625 294.992188 70.832031 293.085938 C 69.105469 291.175781 67.421875 289.226562 65.789062 287.238281 C 64.15625 285.246094 62.570312 283.21875 61.039062 281.148438 C 59.503906 279.082031 58.019531 276.976562 56.589844 274.835938 C 55.160156 272.691406 53.78125 270.519531 52.460938 268.308594 C 51.136719 266.101562 49.867188 263.859375 48.652344 261.589844 C 47.4375 259.320312 46.28125 257.019531 45.179688 254.691406 C 44.078125 252.363281 43.035156 250.011719 42.050781 247.632812 C 41.066406 245.253906 40.136719 242.851562 39.269531 240.425781 C 38.402344 238 37.597656 235.558594 36.847656 233.09375 C 36.101562 230.628906 35.414062 228.148438 34.789062 225.648438 C 34.164062 223.152344 33.597656 220.640625 33.097656 218.113281 C 32.59375 215.589844 32.152344 213.054688 31.777344 210.503906 C 31.398438 207.957031 31.082031 205.402344 30.832031 202.839844 C 30.578125 200.277344 30.390625 197.710938 30.261719 195.140625 C 30.136719 192.566406 30.074219 189.992188 30.074219 187.417969 C 30.074219 184.84375 30.136719 182.269531 30.261719 179.699219 C 30.390625 177.125 30.578125 174.558594 30.832031 171.996094 C 31.082031 169.433594 31.398438 166.878906 31.777344 164.332031 C 32.152344 161.785156 32.59375 159.246094 33.097656 156.722656 C 33.597656 154.195312 34.164062 151.683594 34.789062 149.1875 C 35.414062 146.6875 36.101562 144.207031 36.847656 141.742188 C 37.597656 139.277344 38.402344 136.835938 39.269531 134.410156 C 40.136719 131.984375 41.066406 129.585938 42.050781 127.203125 C 43.035156 124.824219 44.078125 122.472656 45.179688 120.144531 C 46.28125 117.816406 47.4375 115.515625 48.652344 113.246094 C 49.867188 110.976562 51.136719 108.734375 52.460938 106.527344 C 53.78125 104.316406 55.160156 102.144531 56.589844 100.003906 C 58.019531 97.859375 59.503906 95.757812 61.039062 93.6875 C 62.570312 91.621094 64.15625 89.589844 65.789062 87.601562 C 67.421875 85.609375 69.105469 83.660156 70.832031 81.75 C 72.5625 79.84375 74.335938 77.980469 76.160156 76.160156 C 77.980469 74.335938 79.84375 72.5625 81.75 70.832031 C 83.660156 69.105469 85.609375 67.421875 87.601562 65.789062 C 89.589844 64.15625 91.621094 62.570312 93.6875 61.039062 C 95.757812 59.503906 97.859375 58.019531 100.003906 56.589844 C 102.144531 55.160156 104.316406 53.78125 106.527344 52.460938 C 108.734375 51.136719 110.976562 49.867188 113.246094 48.652344 C 115.515625 47.4375 117.816406 46.28125 120.144531 45.179688 C 122.472656 44.078125 124.824219 43.035156 127.203125 42.050781 C 129.585938 41.066406 131.984375 40.136719 134.410156 39.269531 C 136.835938 38.402344 139.277344 37.597656 141.742188 36.847656 C 144.207031 36.101562 146.6875 35.414062 149.1875 34.789062 C 151.683594 34.164062 154.195312 33.597656 156.722656 33.097656 C 159.246094 32.59375 161.785156 32.152344 164.332031 31.777344 C 166.878906 31.398438 169.433594 31.082031 171.996094 30.832031 C 174.558594 30.578125 177.125 30.390625 179.699219 30.261719 C 182.269531 30.136719 184.84375 30.074219 187.417969 30.074219 C 189.992188 30.074219 192.566406 30.136719 195.140625 30.261719 C 197.710938 30.390625 200.277344 30.578125 202.839844 30.832031 C 205.402344 31.082031 207.957031 31.398438 210.503906 31.777344 C 213.054688 32.152344 215.589844 32.59375 218.113281 33.097656 C 220.640625 33.597656 223.152344 34.164062 225.648438 34.789062 C 228.148438 35.414062 230.628906 36.101562 233.09375 36.847656 C 235.558594 37.597656 238 38.402344 240.425781 39.269531 C 242.851562 40.136719 245.253906 41.066406 247.632812 42.050781 C 250.011719 43.035156 252.363281 44.078125 254.691406 45.179688 C 257.019531 46.28125 259.320312 47.4375 261.589844 48.652344 C 263.859375 49.867188 266.101562 51.136719 268.308594 52.460938 C 270.519531 53.78125 272.691406 55.160156 274.835938 56.589844 C 276.976562 58.019531 279.082031 59.503906 281.148438 61.039062 C 283.21875 62.570312 285.246094 64.15625 287.238281 65.789062 C 289.226562 67.421875 291.175781 69.105469 293.085938 70.832031 C 294.992188 72.5625 296.855469 74.335938 298.679688 76.160156 C 300.5 77.980469 302.273438 79.84375 304.003906 81.75 C 305.734375 83.660156 307.414062 85.609375 309.046875 87.601562 C 310.679688 89.589844 312.265625 91.621094 313.800781 93.6875 C 315.332031 95.757812 316.816406 97.859375 318.246094 100.003906 C 319.675781 102.144531 321.054688 104.316406 322.378906 106.527344 C 323.703125 108.734375 324.96875 110.976562 326.183594 113.246094 C 327.398438 115.515625 328.554688 117.816406 329.65625 120.144531 C 330.757812 122.472656 331.800781 124.824219 332.785156 127.203125 C 333.769531 129.585938 334.699219 131.984375 335.566406 134.410156 C 336.433594 136.835938 337.242188 139.277344 337.988281 141.742188 C 338.734375 144.207031 339.421875 146.6875 340.046875 149.1875 C 340.671875 151.683594 341.238281 154.195312 341.738281 156.722656 C 342.242188 159.246094 342.683594 161.785156 343.058594 164.332031 C 343.4375 166.878906 343.753906 169.433594 344.003906 171.996094 C 344.257812 174.558594 344.449219 177.125 344.574219 179.699219 C 344.699219 182.269531 344.761719 184.84375 344.761719 187.417969 Z M 344.761719 187.417969 " fill-opacity="1" fill-rule="nonzero"/><path fill="#cb313b" d="M 333.160156 187.417969 C 333.160156 189.804688 333.101562 192.1875 332.984375 194.570312 C 332.867188 196.953125 332.691406 199.328125 332.457031 201.703125 C 332.226562 204.078125 331.933594 206.445312 331.582031 208.804688 C 331.234375 211.164062 330.824219 213.511719 330.359375 215.851562 C 329.894531 218.191406 329.371094 220.515625 328.792969 222.832031 C 328.214844 225.144531 327.578125 227.441406 326.886719 229.726562 C 326.191406 232.007812 325.445312 234.273438 324.640625 236.515625 C 323.835938 238.761719 322.980469 240.988281 322.066406 243.191406 C 321.152344 245.394531 320.1875 247.574219 319.167969 249.730469 C 318.148438 251.886719 317.074219 254.015625 315.953125 256.121094 C 314.828125 258.222656 313.652344 260.300781 312.425781 262.34375 C 311.199219 264.390625 309.921875 266.40625 308.597656 268.386719 C 307.273438 270.371094 305.902344 272.320312 304.480469 274.238281 C 303.058594 276.152344 301.59375 278.03125 300.078125 279.875 C 298.566406 281.71875 297.007812 283.527344 295.40625 285.292969 C 293.804688 287.058594 292.160156 288.789062 290.472656 290.472656 C 288.789062 292.160156 287.058594 293.804688 285.292969 295.40625 C 283.527344 297.007812 281.71875 298.566406 279.875 300.078125 C 278.03125 301.59375 276.152344 303.058594 274.238281 304.480469 C 272.320312 305.902344 270.371094 307.273438 268.386719 308.597656 C 266.40625 309.925781 264.390625 311.199219 262.34375 312.425781 C 260.300781 313.652344 258.222656 314.828125 256.121094 315.953125 C 254.015625 317.074219 251.886719 318.148438 249.730469 319.167969 C 247.574219 320.1875 245.394531 321.152344 243.191406 322.066406 C 240.988281 322.980469 238.761719 323.835938 236.515625 324.640625 C 234.273438 325.445312 232.007812 326.191406 229.726562 326.886719 C 227.441406 327.578125 225.144531 328.214844 222.832031 328.792969 C 220.515625 329.371094 218.191406 329.894531 215.851562 330.359375 C 213.511719 330.824219 211.164062 331.234375 208.804688 331.582031 C 206.445312 331.933594 204.078125 332.226562 201.703125 332.457031 C 199.328125 332.691406 196.953125 332.867188 194.570312 332.984375 C 192.1875 333.101562 189.804688 333.160156 187.417969 333.160156 C 185.03125 333.160156 182.648438 333.101562 180.265625 332.984375 C 177.882812 332.867188 175.507812 332.691406 173.132812 332.457031 C 170.757812 332.226562 168.394531 331.933594 166.035156 331.582031 C 163.675781 331.234375 161.324219 330.824219 158.984375 330.359375 C 156.644531 329.894531 154.320312 329.371094 152.003906 328.792969 C 149.691406 328.214844 147.394531 327.578125 145.113281 326.886719 C 142.828125 326.191406 140.566406 325.445312 138.320312 324.640625 C 136.074219 323.835938 133.847656 322.980469 131.644531 322.066406 C 129.441406 321.152344 127.261719 320.1875 125.105469 319.167969 C 122.949219 318.148438 120.820312 317.074219 118.714844 315.953125 C 116.613281 314.828125 114.539062 313.652344 112.492188 312.425781 C 110.445312 311.199219 108.429688 309.921875 106.449219 308.597656 C 104.464844 307.273438 102.515625 305.902344 100.597656 304.480469 C 98.683594 303.058594 96.804688 301.59375 94.960938 300.078125 C 93.117188 298.566406 91.3125 297.007812 89.542969 295.40625 C 87.777344 293.804688 86.050781 292.160156 84.363281 290.472656 C 82.675781 288.789062 81.03125 287.058594 79.429688 285.292969 C 77.828125 283.527344 76.269531 281.71875 74.757812 279.875 C 73.246094 278.03125 71.777344 276.152344 70.355469 274.238281 C 68.9375 272.320312 67.5625 270.371094 66.238281 268.386719 C 64.914062 266.40625 63.636719 264.390625 62.410156 262.34375 C 61.183594 260.300781 60.007812 258.222656 58.886719 256.121094 C 57.761719 254.015625 56.6875 251.886719 55.667969 249.730469 C 54.648438 247.574219 53.683594 245.394531 52.769531 243.191406 C 51.855469 240.988281 51 238.761719 50.195312 236.515625 C 49.390625 234.273438 48.644531 232.007812 47.953125 229.726562 C 47.257812 227.441406 46.625 225.144531 46.042969 222.832031 C 45.464844 220.515625 44.941406 218.191406 44.476562 215.851562 C 44.011719 213.511719 43.601562 211.164062 43.253906 208.804688 C 42.902344 206.445312 42.613281 204.078125 42.378906 201.703125 C 42.144531 199.328125 41.96875 196.953125 41.851562 194.570312 C 41.734375 192.1875 41.675781 189.804688 41.675781 187.417969 C 41.675781 185.03125 41.734375 182.648438 41.851562 180.265625 C 41.96875 177.882812 42.144531 175.507812 42.378906 173.132812 C 42.613281 170.757812 42.902344 168.394531 43.253906 166.035156 C 43.601562 163.675781 44.011719 161.324219 44.476562 158.984375 C 44.941406 156.644531 45.464844 154.320312 46.042969 152.003906 C 46.625 149.691406 47.257812 147.394531 47.953125 145.113281 C 48.644531 142.828125 49.390625 140.566406 50.195312 138.320312 C 51 136.074219 51.855469 133.847656 52.769531 131.644531 C 53.683594 129.441406 54.648438 127.261719 55.667969 125.105469 C 56.6875 122.949219 57.761719 120.820312 58.886719 118.714844 C 60.007812 116.613281 61.183594 114.539062 62.410156 112.492188 C 63.636719 110.445312 64.914062 108.429688 66.238281 106.449219 C 67.5625 104.464844 68.9375 102.515625 70.355469 100.597656 C 71.777344 98.683594 73.246094 96.804688 74.757812 94.960938 C 76.269531 93.117188 77.828125 91.3125 79.429688 89.542969 C 81.03125 87.777344 82.675781 86.050781 84.363281 84.363281 C 86.050781 82.675781 87.777344 81.03125 89.542969 79.429688 C 91.3125 77.828125 93.117188 76.269531 94.960938 74.757812 C 96.804688 73.246094 98.683594 71.777344 100.597656 70.355469 C 102.515625 68.9375 104.464844 67.5625 106.449219 66.238281 C 108.429688 64.914062 110.445312 63.636719 112.492188 62.410156 C 114.539062 61.183594 116.613281 60.007812 118.714844 58.886719 C 120.820312 57.761719 122.949219 56.6875 125.105469 55.667969 C 127.261719 54.648438 129.441406 53.683594 131.644531 52.769531 C 133.847656 51.855469 136.074219 51 138.320312 50.195312 C 140.566406 49.390625 142.828125 48.644531 145.113281 47.953125 C 147.394531 47.257812 149.691406 46.625 152.003906 46.042969 C 154.320312 45.464844 156.644531 44.941406 158.984375 44.476562 C 161.324219 44.011719 163.675781 43.601562 166.035156 43.253906 C 168.394531 42.902344 170.757812 42.613281 173.132812 42.378906 C 175.507812 42.144531 177.882812 41.96875 180.265625 41.851562 C 182.648438 41.734375 185.03125 41.675781 187.417969 41.675781 C 189.804688 41.675781 192.1875 41.734375 194.570312 41.851562 C 196.953125 41.96875 199.328125 42.144531 201.703125 42.378906 C 204.078125 42.613281 206.445312 42.902344 208.804688 43.253906 C 211.164062 43.601562 213.511719 44.011719 215.851562 44.476562 C 218.191406 44.941406 220.515625 45.464844 222.832031 46.042969 C 225.144531 46.625 227.441406 47.257812 229.726562 47.953125 C 232.007812 48.644531 234.273438 49.390625 236.515625 50.195312 C 238.761719 51 240.988281 51.855469 243.191406 52.769531 C 245.394531 53.683594 247.574219 54.648438 249.730469 55.667969 C 251.886719 56.6875 254.015625 57.761719 256.121094 58.886719 C 258.222656 60.007812 260.300781 61.183594 262.34375 62.410156 C 264.390625 63.636719 266.40625 64.914062 268.386719 66.238281 C 270.371094 67.5625 272.320312 68.9375 274.238281 70.355469 C 276.152344 71.777344 278.03125 73.246094 279.875 74.757812 C 281.71875 76.269531 283.527344 77.828125 285.292969 79.429688 C 287.058594 81.03125 288.789062 82.675781 290.472656 84.363281 C 292.160156 86.050781 293.804688 87.777344 295.40625 89.542969 C 297.007812 91.3125 298.566406 93.117188 300.078125 94.960938 C 301.59375 96.804688 303.058594 98.683594 304.480469 100.597656 C 305.902344 102.515625 307.273438 104.464844 308.597656 106.449219 C 309.925781 108.429688 311.199219 110.445312 312.425781 112.492188 C 313.652344 114.539062 314.828125 116.613281 315.953125 118.714844 C 317.074219 120.820312 318.148438 122.949219 319.167969 125.105469 C 320.1875 127.261719 321.152344 129.441406 322.066406 131.644531 C 322.980469 133.847656 323.835938 136.074219 324.640625 138.320312 C 325.445312 140.566406 326.191406 142.828125 326.886719 145.113281 C 327.578125 147.394531 328.214844 149.691406 328.792969 152.003906 C 329.371094 154.320312 329.894531 156.644531 330.359375 158.984375 C 330.824219 161.324219 331.234375 163.675781 331.582031 166.035156 C 331.933594 168.394531 332.226562 170.757812 332.457031 173.132812 C 332.691406 175.507812 332.867188 177.882812 332.984375 180.265625 C 333.101562 182.648438 333.160156 185.03125 333.160156 187.417969 Z M 333.160156 187.417969 " fill-opacity="1" fill-rule="nonzero"/><path fill="#ffe18e" d="M 253.628906 204.882812 L 247.292969 204.882812 L 247.292969 247.140625 C 247.292969 252.957031 242.5625 257.6875 236.746094 257.6875 L 130.996094 257.6875 L 130.996094 265.1875 C 130.996094 269.097656 134.179688 272.28125 138.09375 272.28125 L 254.789062 272.28125 C 258.703125 272.28125 261.886719 269.097656 261.886719 265.1875 L 261.886719 204.882812 Z M 253.628906 204.882812 " fill-opacity="1" fill-rule="evenodd"/><path fill="#ffe18e" d="M 243.839844 247.140625 L 243.839844 204.882812 L 112.949219 204.882812 L 112.949219 247.140625 C 112.949219 251.054688 116.132812 254.238281 120.046875 254.238281 L 236.742188 254.238281 C 240.65625 254.238281 243.839844 251.054688 243.839844 247.140625 Z M 235.214844 215.230469 L 235.214844 243.886719 C 235.214844 244.839844 234.445312 245.613281 233.492188 245.613281 L 123.296875 245.613281 C 122.34375 245.613281 121.574219 244.839844 121.574219 243.886719 L 121.574219 215.230469 C 121.574219 214.28125 122.34375 213.507812 123.296875 213.507812 L 233.492188 213.507812 C 234.445312 213.507812 235.214844 214.28125 235.214844 215.230469 Z M 235.214844 215.230469 " fill-opacity="1" fill-rule="evenodd"/><path fill="#ffffff" d="M 231.769531 242.164062 L 231.769531 216.957031 L 125.023438 216.957031 L 125.023438 242.164062 Z M 224.785156 224.277344 L 224.785156 234.839844 C 224.785156 235.792969 224.015625 236.566406 223.0625 236.566406 C 222.109375 236.566406 221.335938 235.792969 221.335938 234.839844 L 221.335938 224.277344 C 221.335938 223.324219 222.109375 222.550781 223.0625 222.550781 C 224.015625 222.550781 224.785156 223.324219 224.785156 224.277344 Z M 209.898438 224.277344 L 209.898438 234.839844 C 209.898438 235.792969 209.125 236.566406 208.171875 236.566406 C 207.222656 236.566406 206.449219 235.792969 206.449219 234.839844 L 206.449219 224.277344 C 206.449219 223.324219 207.222656 222.550781 208.171875 222.550781 C 209.125 222.550781 209.898438 223.324219 209.898438 224.277344 Z M 195.011719 234.839844 C 195.011719 235.792969 194.238281 236.566406 193.285156 236.566406 C 192.332031 236.566406 191.558594 235.792969 191.558594 234.839844 L 191.558594 224.277344 C 191.558594 223.324219 192.332031 222.550781 193.285156 222.550781 C 194.238281 222.550781 195.011719 223.324219 195.011719 224.277344 Z M 180.121094 234.839844 C 180.121094 235.792969 179.347656 236.566406 178.394531 236.566406 C 177.445312 236.566406 176.671875 235.792969 176.671875 234.839844 L 176.671875 224.277344 C 176.671875 223.324219 177.445312 222.550781 178.394531 222.550781 C 179.347656 222.550781 180.121094 223.324219 180.121094 224.277344 Z M 165.230469 234.839844 C 165.230469 235.792969 164.460938 236.566406 163.507812 236.566406 C 162.554688 236.566406 161.78125 235.792969 161.78125 234.839844 L 161.78125 224.277344 C 161.78125 223.324219 162.554688 222.550781 163.507812 222.550781 C 164.460938 222.550781 165.230469 223.324219 165.230469 224.277344 Z M 150.34375 234.839844 C 150.34375 235.792969 149.570312 236.566406 148.617188 236.566406 C 147.667969 236.566406 146.894531 235.792969 146.894531 234.839844 L 146.894531 224.277344 C 146.894531 223.324219 147.667969 222.550781 148.617188 222.550781 C 149.570312 222.550781 150.34375 223.324219 150.34375 224.277344 Z M 135.453125 234.839844 C 135.453125 235.792969 134.683594 236.566406 133.730469 236.566406 C 132.777344 236.566406 132.003906 235.792969 132.003906 234.839844 L 132.003906 224.277344 C 132.003906 223.324219 132.777344 222.550781 133.730469 222.550781 C 134.683594 222.550781 135.453125 223.324219 135.453125 224.277344 Z M 135.453125 234.839844 " fill-opacity="1" fill-rule="evenodd"/><path fill="#ffe18e" d="M 255.351562 154.363281 L 261.886719 154.363281 L 261.886719 201.433594 L 255.351562 201.433594 Z M 255.351562 154.363281 " fill-opacity="1" fill-rule="evenodd"/><path fill="#ffe18e" d="M 253.628906 150.914062 L 261.886719 150.914062 L 261.886719 141.496094 C 261.886719 137.582031 258.703125 134.398438 254.789062 134.398438 L 247.292969 134.398438 L 247.292969 150.914062 Z M 253.628906 150.914062 " fill-opacity="1" fill-rule="evenodd"/><path fill="#ffe18e" d="M 223.457031 125.417969 L 241.675781 125.417969 L 223.457031 105.304688 Z M 223.457031 125.417969 " fill-opacity="1" fill-rule="evenodd"/><path fill="#ffe18e" d="M 133.335938 125.417969 L 133.335938 105.304688 L 115.113281 125.417969 Z M 133.335938 125.417969 " fill-opacity="1" fill-rule="evenodd"/><path fill="#ffe18e" d="M 135.058594 128.867188 L 112.949219 128.867188 L 112.949219 150.914062 L 243.839844 150.914062 L 243.839844 132.671875 C 243.839844 132.664062 243.839844 132.65625 243.839844 132.648438 L 243.839844 128.867188 L 221.730469 128.867188 C 220.777344 128.867188 220.007812 128.097656 220.007812 127.144531 L 220.007812 102.554688 L 136.785156 102.554688 L 136.785156 127.144531 C 136.785156 128.097656 136.011719 128.867188 135.058594 128.867188 Z M 147.933594 137.6875 C 147.933594 136.734375 148.703125 135.964844 149.65625 135.964844 L 206.332031 135.964844 C 207.285156 135.964844 208.054688 136.734375 208.054688 137.6875 C 208.054688 138.640625 207.285156 139.414062 206.332031 139.414062 L 149.65625 139.414062 C 148.703125 139.414062 147.933594 138.640625 147.933594 137.6875 Z M 206.332031 118.914062 L 149.65625 118.914062 C 148.703125 118.914062 147.933594 118.140625 147.933594 117.1875 C 147.933594 116.234375 148.703125 115.464844 149.65625 115.464844 L 206.332031 115.464844 C 207.285156 115.464844 208.054688 116.234375 208.054688 117.1875 C 208.054688 118.140625 207.285156 118.914062 206.332031 118.914062 Z M 206.332031 118.914062 " fill-opacity="1" fill-rule="evenodd"/><path fill="#ffe18e" d="M 119.484375 201.433594 L 119.484375 154.363281 L 112.949219 154.363281 L 112.949219 201.433594 Z M 119.484375 201.433594 " fill-opacity="1" fill-rule="evenodd"/><path fill="#ffffff" d="M 245.566406 201.433594 L 245.59375 201.433594 C 245.585938 201.433594 245.574219 201.433594 245.566406 201.433594 Z M 122.9375 154.367188 L 122.9375 201.433594 L 251.902344 201.433594 L 251.902344 154.367188 Z M 138.753906 193.925781 L 138.753906 161.875 C 138.753906 160.921875 139.523438 160.148438 140.476562 160.148438 L 152.785156 160.148438 C 158.074219 160.148438 162.375 164.449219 162.375 169.734375 C 162.375 175.023438 158.074219 179.320312 152.785156 179.320312 L 142.203125 179.320312 L 142.203125 193.925781 C 142.203125 194.878906 141.429688 195.648438 140.476562 195.648438 C 139.523438 195.648438 138.753906 194.878906 138.753906 193.925781 Z M 173.679688 193.925781 L 173.679688 161.875 C 173.679688 161.417969 173.863281 160.976562 174.1875 160.65625 C 174.511719 160.332031 174.949219 160.148438 175.40625 160.148438 L 187.625 160.148438 C 195.316406 160.148438 201.570312 166.40625 201.570312 174.09375 L 201.570312 181.707031 C 201.570312 189.394531 195.316406 195.648438 187.625 195.648438 L 175.40625 195.648438 C 174.453125 195.648438 173.679688 194.878906 173.679688 193.925781 Z M 214.484375 193.925781 L 214.484375 161.875 C 214.484375 160.921875 215.257812 160.148438 216.210938 160.148438 L 226.347656 160.148438 C 231.714844 160.148438 236.082031 164.515625 236.082031 169.886719 C 236.082031 173.207031 234.414062 176.140625 231.875 177.898438 C 234.414062 179.660156 236.082031 182.59375 236.082031 185.914062 C 236.082031 191.28125 231.714844 195.648438 226.347656 195.648438 L 216.210938 195.648438 C 215.257812 195.648438 214.484375 194.878906 214.484375 193.925781 Z M 214.484375 193.925781 " fill-opacity="1" fill-rule="evenodd"/><path fill="#ffffff" d="M 152.785156 175.871094 C 156.171875 175.871094 158.921875 173.117188 158.921875 169.734375 C 158.921875 166.351562 156.171875 163.597656 152.785156 163.597656 L 142.203125 163.597656 L 142.203125 175.871094 Z M 152.785156 175.871094 " fill-opacity="1" fill-rule="evenodd"/><path fill="#ffffff" d="M 177.132812 163.597656 L 177.132812 192.199219 L 187.625 192.199219 C 193.414062 192.199219 198.121094 187.492188 198.121094 181.703125 L 198.121094 174.09375 C 198.121094 168.304688 193.414062 163.597656 187.625 163.597656 Z M 177.132812 163.597656 " fill-opacity="1" fill-rule="evenodd"/><path fill="#ffffff" d="M 217.933594 163.597656 L 217.933594 176.175781 L 226.347656 176.175781 C 229.8125 176.175781 232.632812 173.351562 232.632812 169.886719 C 232.632812 166.417969 229.8125 163.597656 226.347656 163.597656 Z M 217.933594 163.597656 " fill-opacity="1" fill-rule="evenodd"/><path fill="#ffffff" d="M 226.347656 179.625 L 217.933594 179.625 L 217.933594 192.199219 L 226.347656 192.199219 C 229.8125 192.199219 232.632812 189.378906 232.632812 185.914062 C 232.632812 182.445312 229.8125 179.625 226.347656 179.625 Z M 226.347656 179.625 " fill-opacity="1" fill-rule="evenodd"/><g fill="#ffffff" fill-opacity="1"><g transform="translate(21.668291, 43.124997)"><g><path d="M 2.109375 0.078125 C 1.804688 0.078125 1.566406 -0.00390625 1.390625 -0.171875 C 1.222656 -0.335938 1.140625 -0.5625 1.140625 -0.84375 C 1.140625 -1.113281 1.222656 -1.332031 1.390625 -1.5 C 1.566406 -1.675781 1.804688 -1.765625 2.109375 -1.765625 C 2.410156 -1.765625 2.644531 -1.679688 2.8125 -1.515625 C 2.988281 -1.347656 3.078125 -1.128906 3.078125 -0.859375 C 3.078125 -0.578125 2.988281 -0.347656 2.8125 -0.171875 C 2.632812 -0.00390625 2.398438 0.078125 2.109375 0.078125 Z M 2.109375 0.078125 "/></g></g></g></svg>