<svg xmlns="http://www.w3.org/2000/svg" xmlns:xlink="http://www.w3.org/1999/xlink" width="48" zoomAndPan="magnify" viewBox="0 0 36 36.000001" height="48" preserveAspectRatio="xMidYMid meet" version="1.0"><defs><g/><clipPath id="789311dc7c"><path d="M 2.601562 2.597656 L 33.25 2.597656 L 33.25 33.246094 L 2.601562 33.246094 Z M 2.601562 2.597656 " clip-rule="nonzero"/></clipPath></defs><g clip-path="url(#789311dc7c)"><path fill="#382b73" d="M 17.925781 2.597656 C 18.933594 2.597656 19.929688 2.695312 20.917969 2.890625 C 21.902344 3.089844 22.863281 3.378906 23.792969 3.765625 C 24.722656 4.148438 25.605469 4.621094 26.441406 5.179688 C 27.277344 5.738281 28.050781 6.375 28.761719 7.085938 C 29.472656 7.796875 30.109375 8.570312 30.667969 9.410156 C 31.226562 10.246094 31.699219 11.128906 32.085938 12.058594 C 32.46875 12.988281 32.761719 13.945312 32.957031 14.933594 C 33.152344 15.917969 33.25 16.914062 33.25 17.921875 C 33.25 18.929688 33.152344 19.925781 32.957031 20.910156 C 32.761719 21.898438 32.46875 22.855469 32.085938 23.785156 C 31.699219 24.714844 31.226562 25.597656 30.667969 26.4375 C 30.109375 27.273438 29.472656 28.046875 28.761719 28.757812 C 28.050781 29.46875 27.277344 30.105469 26.441406 30.664062 C 25.605469 31.222656 24.722656 31.695312 23.792969 32.078125 C 22.863281 32.464844 21.902344 32.753906 20.917969 32.953125 C 19.929688 33.148438 18.933594 33.246094 17.925781 33.246094 C 16.921875 33.246094 15.925781 33.148438 14.9375 32.953125 C 13.949219 32.753906 12.992188 32.464844 12.0625 32.078125 C 11.132812 31.695312 10.25 31.222656 9.414062 30.664062 C 8.578125 30.105469 7.800781 29.46875 7.089844 28.757812 C 6.378906 28.046875 5.746094 27.273438 5.183594 26.4375 C 4.625 25.597656 4.152344 24.714844 3.769531 23.785156 C 3.382812 22.855469 3.09375 21.898438 2.898438 20.910156 C 2.699219 19.925781 2.601562 18.929688 2.601562 17.921875 C 2.601562 16.914062 2.699219 15.917969 2.898438 14.933594 C 3.09375 13.945312 3.382812 12.988281 3.769531 12.058594 C 4.152344 11.128906 4.625 10.246094 5.183594 9.410156 C 5.746094 8.570312 6.378906 7.796875 7.089844 7.085938 C 7.800781 6.375 8.578125 5.738281 9.414062 5.179688 C 10.25 4.621094 11.132812 4.148438 12.0625 3.765625 C 12.992188 3.378906 13.949219 3.089844 14.9375 2.890625 C 15.925781 2.695312 16.921875 2.597656 17.925781 2.597656 Z M 17.925781 2.597656 " fill-opacity="1" fill-rule="evenodd"/></g><path fill="#35abc0" d="M 10.910156 17.332031 L 22.128906 17.332031 C 22.421875 17.332031 22.691406 17.453125 22.886719 17.644531 L 22.734375 17.796875 L 22.886719 17.644531 C 23.082031 17.839844 23.210938 18.113281 23.210938 18.414062 L 23.210938 22.460938 C 23.210938 22.761719 23.082031 23.035156 22.886719 23.230469 L 22.734375 23.078125 L 22.886719 23.230469 C 22.691406 23.421875 22.421875 23.542969 22.128906 23.542969 L 10.910156 23.542969 C 10.792969 23.542969 10.695312 23.457031 10.695312 23.324219 L 10.695312 17.550781 C 10.695312 17.429688 10.792969 17.332031 10.910156 17.332031 Z M 22.128906 17.765625 L 11.128906 17.765625 L 11.128906 23.109375 L 22.128906 23.109375 C 22.304688 23.109375 22.464844 23.042969 22.585938 22.925781 C 22.703125 22.808594 22.777344 22.644531 22.777344 22.460938 L 22.777344 18.414062 C 22.777344 18.230469 22.703125 18.066406 22.585938 17.949219 C 22.464844 17.832031 22.304688 17.765625 22.128906 17.765625 Z M 22.128906 17.765625 " fill-opacity="1" fill-rule="nonzero"/><path fill="#35abc0" d="M 12.621094 22.113281 L 12.621094 18.761719 C 12.988281 18.761719 14.09375 18.738281 14.394531 18.792969 C 15.3125 18.957031 15.347656 19.984375 14.914062 20.460938 C 14.558594 20.835938 13.679688 20.75 13.0625 20.75 L 13.0625 22.113281 Z M 13.0625 20.351562 C 13.496094 20.351562 14.285156 20.425781 14.546875 20.199219 C 14.839844 19.941406 14.785156 19.300781 14.339844 19.183594 C 14.167969 19.140625 13.300781 19.160156 13.0625 19.160156 Z M 15.746094 22.113281 L 15.746094 18.761719 C 16.136719 18.761719 17.175781 18.738281 17.5 18.816406 C 18.808594 19.105469 18.777344 21.292969 17.890625 21.886719 C 17.628906 22.058594 17.292969 22.113281 16.957031 22.113281 Z M 16.191406 21.714844 C 17.054688 21.714844 17.707031 21.855469 17.976562 21.054688 C 18.148438 20.511719 18.117188 19.484375 17.46875 19.226562 C 17.21875 19.128906 16.527344 19.160156 16.191406 19.160156 Z M 19.113281 22.113281 L 19.113281 18.761719 L 20.367188 18.761719 C 20.789062 18.761719 21.144531 18.847656 21.351562 19.183594 C 21.609375 19.605469 21.46875 20.101562 21.003906 20.328125 C 21.902344 20.589844 21.839844 21.832031 20.929688 22.058594 C 20.570312 22.148438 19.535156 22.113281 19.113281 22.113281 Z M 19.554688 20.167969 C 19.804688 20.167969 20.507812 20.1875 20.703125 20.132812 C 21.1875 19.984375 21.113281 19.324219 20.734375 19.203125 C 20.519531 19.140625 19.835938 19.160156 19.554688 19.160156 Z M 19.554688 21.714844 C 19.75 21.714844 20.550781 21.726562 20.691406 21.703125 C 21.351562 21.585938 21.308594 20.785156 20.820312 20.621094 C 20.570312 20.546875 19.867188 20.566406 19.554688 20.566406 Z M 19.554688 21.714844 " fill-opacity="1" fill-rule="nonzero"/><path fill="#faad7f" d="M 25.160156 13.058594 C 25.160156 12.765625 24.726562 12.765625 24.726562 13.058594 L 24.726562 26.0625 C 24.726562 26.234375 24.660156 26.410156 24.53125 26.527344 C 24.414062 26.648438 24.25 26.722656 24.066406 26.722656 L 11.789062 26.722656 C 11.605469 26.722656 11.441406 26.648438 11.324219 26.527344 L 11.171875 26.679688 L 11.324219 26.527344 C 11.203125 26.410156 11.128906 26.246094 11.128906 26.0625 L 11.128906 9.792969 C 11.128906 9.425781 11.417969 9.121094 11.789062 9.121094 L 20.800781 9.121094 C 21.089844 9.121094 21.089844 8.6875 20.800781 8.6875 L 11.789062 8.6875 C 11.191406 8.6875 10.695312 9.1875 10.695312 9.792969 L 10.695312 26.0625 C 10.695312 26.355469 10.8125 26.636719 11.019531 26.832031 C 11.214844 27.035156 11.496094 27.15625 11.789062 27.15625 L 24.066406 27.15625 C 24.371094 27.15625 24.640625 27.035156 24.84375 26.832031 L 24.683594 26.679688 L 24.84375 26.832031 C 25.039062 26.636719 25.160156 26.355469 25.160156 26.0625 Z M 25.160156 13.058594 " fill-opacity="1" fill-rule="nonzero"/><path fill="#faad7f" d="M 20.949219 8.753906 L 25.105469 12.898438 C 25.234375 13.039062 25.136719 13.277344 24.941406 13.277344 L 21.675781 13.277344 C 21.082031 13.277344 20.582031 12.777344 20.582031 12.171875 L 20.582031 8.90625 C 20.582031 8.710938 20.820312 8.625 20.949219 8.753906 Z M 24.421875 12.84375 L 21.015625 9.433594 L 21.015625 12.171875 C 21.015625 12.539062 21.320312 12.84375 21.675781 12.84375 Z M 24.421875 12.84375 " fill-opacity="1" fill-rule="nonzero"/><path fill="#faad7f" d="M 12.296875 15.925781 C 12.015625 15.925781 12.015625 16.359375 12.296875 16.359375 L 21.609375 16.359375 C 21.890625 16.359375 21.890625 15.925781 21.609375 15.925781 Z M 12.296875 15.925781 " fill-opacity="1" fill-rule="nonzero"/><path fill="#faad7f" d="M 12.296875 14.269531 C 12.015625 14.269531 12.015625 14.703125 12.296875 14.703125 L 21.609375 14.703125 C 21.890625 14.703125 21.890625 14.269531 21.609375 14.269531 Z M 12.296875 14.269531 " fill-opacity="1" fill-rule="nonzero"/><g fill="#ffffff" fill-opacity="1"><g transform="translate(30.294931, 31.47568)"><g><path d="M 0.25 0.015625 C 0.21875 0.015625 0.191406 0.00390625 0.171875 -0.015625 C 0.148438 -0.0351562 0.140625 -0.0664062 0.140625 -0.109375 C 0.140625 -0.140625 0.148438 -0.164062 0.171875 -0.1875 C 0.191406 -0.207031 0.21875 -0.21875 0.25 -0.21875 C 0.289062 -0.21875 0.320312 -0.207031 0.34375 -0.1875 C 0.363281 -0.164062 0.375 -0.140625 0.375 -0.109375 C 0.375 -0.0664062 0.363281 -0.0351562 0.34375 -0.015625 C 0.320312 0.00390625 0.289062 0.015625 0.25 0.015625 Z M 0.25 0.015625 "/></g></g></g></svg>