<svg xmlns="http://www.w3.org/2000/svg" xmlns:xlink="http://www.w3.org/1999/xlink" width="48" zoomAndPan="magnify" viewBox="0 0 36 36.000001" height="48" preserveAspectRatio="xMidYMid meet" version="1.0"><defs><g/><clipPath id="e79c3433f9"><path d="M 3.246094 2.757812 L 32.433594 2.757812 L 32.433594 31.949219 L 3.246094 31.949219 Z M 3.246094 2.757812 " clip-rule="nonzero"/></clipPath><clipPath id="983dcc3b3e"><path d="M 3.246094 3 L 32 3 L 32 31.949219 L 3.246094 31.949219 Z M 3.246094 3 " clip-rule="nonzero"/></clipPath></defs><g clip-path="url(#e79c3433f9)"><path fill="#f9e574" d="M 32.433594 17.355469 C 32.433594 18.3125 32.34375 19.261719 32.15625 20.203125 C 31.96875 21.140625 31.691406 22.054688 31.324219 22.9375 C 30.957031 23.824219 30.507812 24.664062 29.976562 25.460938 C 29.441406 26.257812 28.839844 26.996094 28.160156 27.675781 C 27.484375 28.351562 26.746094 28.957031 25.949219 29.488281 C 25.152344 30.023438 24.3125 30.472656 23.425781 30.839844 C 22.539062 31.203125 21.628906 31.480469 20.6875 31.667969 C 19.75 31.855469 18.800781 31.949219 17.839844 31.949219 C 16.882812 31.949219 15.933594 31.855469 14.992188 31.667969 C 14.054688 31.480469 13.140625 31.203125 12.253906 30.839844 C 11.371094 30.472656 10.527344 30.023438 9.734375 29.488281 C 8.9375 28.957031 8.199219 28.351562 7.519531 27.675781 C 6.84375 26.996094 6.238281 26.257812 5.707031 25.460938 C 5.171875 24.664062 4.722656 23.824219 4.355469 22.9375 C 3.992188 22.054688 3.714844 21.140625 3.527344 20.203125 C 3.339844 19.261719 3.246094 18.3125 3.246094 17.355469 C 3.246094 16.394531 3.339844 15.445312 3.527344 14.507812 C 3.714844 13.566406 3.992188 12.65625 4.355469 11.769531 C 4.722656 10.882812 5.171875 10.042969 5.707031 9.246094 C 6.238281 8.449219 6.84375 7.710938 7.519531 7.035156 C 8.199219 6.355469 8.9375 5.75 9.734375 5.21875 C 10.527344 4.6875 11.371094 4.238281 12.253906 3.871094 C 13.140625 3.503906 14.054688 3.226562 14.992188 3.039062 C 15.933594 2.851562 16.882812 2.757812 17.839844 2.757812 C 18.800781 2.757812 19.75 2.851562 20.6875 3.039062 C 21.628906 3.226562 22.539062 3.503906 23.425781 3.871094 C 24.3125 4.238281 25.152344 4.6875 25.949219 5.21875 C 26.746094 5.75 27.484375 6.355469 28.160156 7.035156 C 28.839844 7.710938 29.441406 8.449219 29.976562 9.246094 C 30.507812 10.042969 30.957031 10.882812 31.324219 11.769531 C 31.691406 12.65625 31.96875 13.566406 32.15625 14.507812 C 32.34375 15.445312 32.433594 16.394531 32.433594 17.355469 Z M 32.433594 17.355469 " fill-opacity="1" fill-rule="nonzero"/></g><g clip-path="url(#983dcc3b3e)"><path fill="#fccb6c" d="M 31.695312 17.355469 C 31.695312 18.265625 31.605469 19.164062 31.429688 20.058594 C 31.25 20.949219 30.988281 21.816406 30.640625 22.65625 C 30.292969 23.496094 29.867188 24.296875 29.359375 25.050781 C 28.855469 25.808594 28.28125 26.507812 27.636719 27.152344 C 26.996094 27.792969 26.292969 28.367188 25.539062 28.875 C 24.78125 29.378906 23.984375 29.804688 23.144531 30.152344 C 22.300781 30.503906 21.4375 30.765625 20.542969 30.941406 C 19.652344 31.121094 18.75 31.207031 17.839844 31.207031 C 16.929688 31.207031 16.03125 31.121094 15.136719 30.941406 C 14.246094 30.765625 13.378906 30.503906 12.539062 30.152344 C 11.699219 29.804688 10.898438 29.378906 10.144531 28.875 C 9.386719 28.367188 8.6875 27.792969 8.042969 27.152344 C 7.402344 26.507812 6.828125 25.808594 6.320312 25.050781 C 5.816406 24.296875 5.390625 23.496094 5.039062 22.65625 C 4.691406 21.816406 4.429688 20.949219 4.253906 20.058594 C 4.074219 19.164062 3.984375 18.265625 3.984375 17.355469 C 3.984375 16.445312 4.074219 15.542969 4.253906 14.652344 C 4.429688 13.757812 4.691406 12.894531 5.039062 12.050781 C 5.390625 11.210938 5.816406 10.414062 6.320312 9.65625 C 6.828125 8.902344 7.402344 8.199219 8.042969 7.558594 C 8.6875 6.914062 9.386719 6.339844 10.144531 5.835938 C 10.898438 5.328125 11.699219 4.902344 12.539062 4.554688 C 13.378906 4.207031 14.246094 3.945312 15.136719 3.765625 C 16.03125 3.589844 16.929688 3.5 17.839844 3.5 C 18.75 3.5 19.652344 3.589844 20.542969 3.765625 C 21.4375 3.945312 22.300781 4.207031 23.144531 4.554688 C 23.984375 4.902344 24.78125 5.328125 25.539062 5.835938 C 26.292969 6.339844 26.996094 6.914062 27.636719 7.558594 C 28.28125 8.199219 28.855469 8.902344 29.359375 9.65625 C 29.867188 10.414062 30.292969 11.210938 30.640625 12.050781 C 30.988281 12.894531 31.25 13.757812 31.429688 14.652344 C 31.605469 15.542969 31.695312 16.445312 31.695312 17.355469 Z M 31.695312 17.355469 " fill-opacity="1" fill-rule="nonzero"/></g><path fill="#cb313b" d="M 30.671875 17.355469 C 30.671875 18.195312 30.589844 19.03125 30.425781 19.859375 C 30.261719 20.683594 30.019531 21.488281 29.695312 22.265625 C 29.375 23.042969 28.980469 23.785156 28.511719 24.484375 C 28.042969 25.183594 27.511719 25.832031 26.914062 26.429688 C 26.320312 27.023438 25.671875 27.554688 24.96875 28.023438 C 24.269531 28.492188 23.53125 28.886719 22.75 29.210938 C 21.972656 29.53125 21.171875 29.777344 20.34375 29.941406 C 19.519531 30.105469 18.683594 30.1875 17.839844 30.1875 C 17 30.1875 16.164062 30.105469 15.335938 29.941406 C 14.511719 29.777344 13.707031 29.53125 12.929688 29.210938 C 12.152344 28.886719 11.410156 28.492188 10.710938 28.023438 C 10.011719 27.554688 9.363281 27.023438 8.765625 26.429688 C 8.171875 25.832031 7.640625 25.183594 7.171875 24.484375 C 6.703125 23.785156 6.308594 23.042969 5.984375 22.265625 C 5.664062 21.488281 5.417969 20.683594 5.253906 19.859375 C 5.089844 19.03125 5.007812 18.195312 5.007812 17.355469 C 5.007812 16.511719 5.089844 15.675781 5.253906 14.851562 C 5.417969 14.023438 5.664062 13.222656 5.984375 12.441406 C 6.308594 11.664062 6.703125 10.925781 7.171875 10.226562 C 7.640625 9.523438 8.171875 8.875 8.765625 8.28125 C 9.363281 7.683594 10.011719 7.152344 10.710938 6.683594 C 11.410156 6.214844 12.152344 5.820312 12.929688 5.5 C 13.707031 5.175781 14.511719 4.933594 15.335938 4.769531 C 16.164062 4.605469 17 4.519531 17.839844 4.519531 C 18.683594 4.519531 19.519531 4.605469 20.34375 4.769531 C 21.171875 4.933594 21.972656 5.175781 22.75 5.5 C 23.53125 5.820312 24.269531 6.214844 24.96875 6.683594 C 25.671875 7.152344 26.320312 7.683594 26.914062 8.28125 C 27.511719 8.875 28.042969 9.523438 28.511719 10.226562 C 28.980469 10.925781 29.375 11.664062 29.695312 12.441406 C 30.019531 13.222656 30.261719 14.023438 30.425781 14.851562 C 30.589844 15.675781 30.671875 16.511719 30.671875 17.355469 Z M 30.671875 17.355469 " fill-opacity="1" fill-rule="nonzero"/><path fill="#ffe18e" d="M 23.671875 18.890625 L 23.113281 18.890625 L 23.113281 22.613281 C 23.113281 23.125 22.695312 23.542969 22.183594 23.542969 L 12.871094 23.542969 L 12.871094 24.203125 C 12.871094 24.546875 13.152344 24.828125 13.496094 24.828125 L 23.773438 24.828125 C 24.117188 24.828125 24.398438 24.546875 24.398438 24.203125 L 24.398438 18.890625 Z M 23.671875 18.890625 " fill-opacity="1" fill-rule="evenodd"/><path fill="#ffe18e" d="M 22.808594 22.613281 L 22.808594 18.890625 L 11.285156 18.890625 L 11.285156 22.613281 C 11.285156 22.957031 11.5625 23.238281 11.910156 23.238281 L 22.183594 23.238281 C 22.527344 23.238281 22.808594 22.957031 22.808594 22.613281 Z M 22.050781 19.804688 L 22.050781 22.328125 C 22.050781 22.410156 21.980469 22.476562 21.898438 22.476562 L 12.195312 22.476562 C 12.109375 22.476562 12.042969 22.410156 12.042969 22.328125 L 12.042969 19.804688 C 12.042969 19.71875 12.109375 19.652344 12.195312 19.652344 L 21.898438 19.652344 C 21.980469 19.652344 22.050781 19.71875 22.050781 19.804688 Z M 22.050781 19.804688 " fill-opacity="1" fill-rule="evenodd"/><path fill="#ffffff" d="M 21.746094 22.175781 L 21.746094 19.957031 L 12.347656 19.957031 L 12.347656 22.175781 Z M 21.132812 20.601562 L 21.132812 21.53125 C 21.132812 21.613281 21.0625 21.683594 20.980469 21.683594 C 20.894531 21.683594 20.828125 21.613281 20.828125 21.53125 L 20.828125 20.601562 C 20.828125 20.515625 20.894531 20.449219 20.980469 20.449219 C 21.0625 20.449219 21.132812 20.515625 21.132812 20.601562 Z M 19.820312 20.601562 L 19.820312 21.53125 C 19.820312 21.613281 19.753906 21.683594 19.667969 21.683594 C 19.585938 21.683594 19.515625 21.613281 19.515625 21.53125 L 19.515625 20.601562 C 19.515625 20.515625 19.585938 20.449219 19.667969 20.449219 C 19.753906 20.449219 19.820312 20.515625 19.820312 20.601562 Z M 18.507812 21.53125 C 18.507812 21.613281 18.441406 21.683594 18.355469 21.683594 C 18.273438 21.683594 18.207031 21.613281 18.207031 21.53125 L 18.207031 20.601562 C 18.207031 20.515625 18.273438 20.449219 18.355469 20.449219 C 18.441406 20.449219 18.507812 20.515625 18.507812 20.601562 Z M 17.199219 21.53125 C 17.199219 21.613281 17.128906 21.683594 17.046875 21.683594 C 16.960938 21.683594 16.894531 21.613281 16.894531 21.53125 L 16.894531 20.601562 C 16.894531 20.515625 16.960938 20.449219 17.046875 20.449219 C 17.128906 20.449219 17.199219 20.515625 17.199219 20.601562 Z M 15.886719 21.53125 C 15.886719 21.613281 15.820312 21.683594 15.734375 21.683594 C 15.652344 21.683594 15.582031 21.613281 15.582031 21.53125 L 15.582031 20.601562 C 15.582031 20.515625 15.652344 20.449219 15.734375 20.449219 C 15.820312 20.449219 15.886719 20.515625 15.886719 20.601562 Z M 14.578125 21.53125 C 14.578125 21.613281 14.507812 21.683594 14.425781 21.683594 C 14.339844 21.683594 14.273438 21.613281 14.273438 21.53125 L 14.273438 20.601562 C 14.273438 20.515625 14.339844 20.449219 14.425781 20.449219 C 14.507812 20.449219 14.578125 20.515625 14.578125 20.601562 Z M 13.265625 21.53125 C 13.265625 21.613281 13.199219 21.683594 13.113281 21.683594 C 13.03125 21.683594 12.960938 21.613281 12.960938 21.53125 L 12.960938 20.601562 C 12.960938 20.515625 13.03125 20.449219 13.113281 20.449219 C 13.199219 20.449219 13.265625 20.515625 13.265625 20.601562 Z M 13.265625 21.53125 " fill-opacity="1" fill-rule="evenodd"/><path fill="#ffe18e" d="M 23.824219 14.445312 L 24.398438 14.445312 L 24.398438 18.589844 L 23.824219 18.589844 Z M 23.824219 14.445312 " fill-opacity="1" fill-rule="evenodd"/><path fill="#ffe18e" d="M 23.671875 14.140625 L 24.398438 14.140625 L 24.398438 13.3125 C 24.398438 12.964844 24.117188 12.6875 23.773438 12.6875 L 23.113281 12.6875 L 23.113281 14.140625 Z M 23.671875 14.140625 " fill-opacity="1" fill-rule="evenodd"/><path fill="#ffe18e" d="M 21.015625 11.894531 L 22.617188 11.894531 L 21.015625 10.125 Z M 21.015625 11.894531 " fill-opacity="1" fill-rule="evenodd"/><path fill="#ffe18e" d="M 13.078125 11.894531 L 13.078125 10.125 L 11.472656 11.894531 Z M 13.078125 11.894531 " fill-opacity="1" fill-rule="evenodd"/><path fill="#ffe18e" d="M 13.230469 12.199219 L 11.285156 12.199219 L 11.285156 14.140625 L 22.808594 14.140625 L 22.808594 12.535156 C 22.808594 12.53125 22.808594 12.53125 22.808594 12.53125 L 22.808594 12.199219 L 20.863281 12.199219 C 20.777344 12.199219 20.710938 12.132812 20.710938 12.046875 L 20.710938 9.882812 L 13.382812 9.882812 L 13.382812 12.046875 C 13.382812 12.132812 13.3125 12.199219 13.230469 12.199219 Z M 14.363281 12.976562 C 14.363281 12.890625 14.433594 12.824219 14.515625 12.824219 L 19.507812 12.824219 C 19.589844 12.824219 19.65625 12.890625 19.65625 12.976562 C 19.65625 13.058594 19.589844 13.128906 19.507812 13.128906 L 14.515625 13.128906 C 14.433594 13.128906 14.363281 13.058594 14.363281 12.976562 Z M 19.507812 11.324219 L 14.515625 11.324219 C 14.433594 11.324219 14.363281 11.253906 14.363281 11.171875 C 14.363281 11.085938 14.433594 11.019531 14.515625 11.019531 L 19.507812 11.019531 C 19.589844 11.019531 19.65625 11.085938 19.65625 11.171875 C 19.65625 11.253906 19.589844 11.324219 19.507812 11.324219 Z M 19.507812 11.324219 " fill-opacity="1" fill-rule="evenodd"/><path fill="#ffe18e" d="M 11.859375 18.589844 L 11.859375 14.445312 L 11.285156 14.445312 L 11.285156 18.589844 Z M 11.859375 18.589844 " fill-opacity="1" fill-rule="evenodd"/><path fill="#ffffff" d="M 22.960938 18.589844 L 22.964844 18.589844 C 22.960938 18.589844 22.960938 18.589844 22.960938 18.589844 Z M 12.164062 14.445312 L 12.164062 18.589844 L 23.519531 18.589844 L 23.519531 14.445312 Z M 13.554688 17.925781 L 13.554688 15.105469 C 13.554688 15.019531 13.625 14.953125 13.707031 14.953125 L 14.792969 14.953125 C 15.257812 14.953125 15.636719 15.332031 15.636719 15.796875 C 15.636719 16.261719 15.257812 16.640625 14.792969 16.640625 L 13.859375 16.640625 L 13.859375 17.925781 C 13.859375 18.011719 13.792969 18.078125 13.707031 18.078125 C 13.625 18.078125 13.554688 18.011719 13.554688 17.925781 Z M 16.632812 17.925781 L 16.632812 15.105469 C 16.632812 15.066406 16.648438 15.027344 16.675781 14.996094 C 16.703125 14.96875 16.742188 14.953125 16.78125 14.953125 L 17.859375 14.953125 C 18.535156 14.953125 19.085938 15.503906 19.085938 16.179688 L 19.085938 16.851562 C 19.085938 17.527344 18.535156 18.078125 17.859375 18.078125 L 16.78125 18.078125 C 16.699219 18.078125 16.632812 18.011719 16.632812 17.925781 Z M 20.222656 17.925781 L 20.222656 15.105469 C 20.222656 15.019531 20.292969 14.953125 20.375 14.953125 L 21.269531 14.953125 C 21.742188 14.953125 22.125 15.335938 22.125 15.8125 C 22.125 16.101562 21.980469 16.359375 21.753906 16.515625 C 21.980469 16.671875 22.125 16.929688 22.125 17.222656 C 22.125 17.695312 21.742188 18.078125 21.269531 18.078125 L 20.375 18.078125 C 20.292969 18.078125 20.222656 18.011719 20.222656 17.925781 Z M 20.222656 17.925781 " fill-opacity="1" fill-rule="evenodd"/><path fill="#ffffff" d="M 14.792969 16.335938 C 15.089844 16.335938 15.332031 16.09375 15.332031 15.796875 C 15.332031 15.5 15.089844 15.257812 14.792969 15.257812 L 13.859375 15.257812 L 13.859375 16.335938 Z M 14.792969 16.335938 " fill-opacity="1" fill-rule="evenodd"/><path fill="#ffffff" d="M 16.933594 15.257812 L 16.933594 17.773438 L 17.859375 17.773438 C 18.367188 17.773438 18.78125 17.359375 18.78125 16.851562 L 18.78125 16.179688 C 18.78125 15.671875 18.367188 15.257812 17.859375 15.257812 Z M 16.933594 15.257812 " fill-opacity="1" fill-rule="evenodd"/><path fill="#ffffff" d="M 20.527344 15.257812 L 20.527344 16.363281 L 21.269531 16.363281 C 21.574219 16.363281 21.820312 16.117188 21.820312 15.8125 C 21.820312 15.503906 21.574219 15.257812 21.269531 15.257812 Z M 20.527344 15.257812 " fill-opacity="1" fill-rule="evenodd"/><path fill="#ffffff" d="M 21.269531 16.667969 L 20.527344 16.667969 L 20.527344 17.773438 L 21.269531 17.773438 C 21.574219 17.773438 21.820312 17.527344 21.820312 17.222656 C 21.820312 16.917969 21.574219 16.667969 21.269531 16.667969 Z M 21.269531 16.667969 " fill-opacity="1" fill-rule="evenodd"/><g fill="#ffffff" fill-opacity="1"><g transform="translate(30.294931, 31.47568)"><g><path d="M 0.25 0.015625 C 0.21875 0.015625 0.191406 0.00390625 0.171875 -0.015625 C 0.148438 -0.0351562 0.140625 -0.0664062 0.140625 -0.109375 C 0.140625 -0.140625 0.148438 -0.164062 0.171875 -0.1875 C 0.191406 -0.207031 0.21875 -0.21875 0.25 -0.21875 C 0.289062 -0.21875 0.320312 -0.207031 0.34375 -0.1875 C 0.363281 -0.164062 0.375 -0.140625 0.375 -0.109375 C 0.375 -0.0664062 0.363281 -0.0351562 0.34375 -0.015625 C 0.320312 0.00390625 0.289062 0.015625 0.25 0.015625 Z M 0.25 0.015625 "/></g></g></g></svg>