<svg xmlns="http://www.w3.org/2000/svg" xmlns:xlink="http://www.w3.org/1999/xlink" width="48" zoomAndPan="magnify" viewBox="0 0 36 36.000001" height="48" preserveAspectRatio="xMidYMid meet" version="1.0"><defs><g/><clipPath id="a47aa47d50"><path d="M 8.617188 8.128906 L 27.589844 8.128906 L 27.589844 27.101562 L 8.617188 27.101562 Z M 8.617188 8.128906 " clip-rule="nonzero"/></clipPath></defs><g clip-path="url(#a47aa47d50)"><path fill="#faa940" d="M 27.589844 17.617188 C 27.589844 18.238281 27.527344 18.855469 27.40625 19.46875 C 27.285156 20.078125 27.105469 20.671875 26.867188 21.246094 C 26.628906 21.820312 26.335938 22.367188 25.992188 22.886719 C 25.644531 23.40625 25.25 23.882812 24.8125 24.324219 C 24.371094 24.765625 23.890625 25.15625 23.375 25.503906 C 22.855469 25.851562 22.308594 26.140625 21.734375 26.378906 C 21.15625 26.617188 20.5625 26.800781 19.953125 26.921875 C 19.34375 27.042969 18.726562 27.101562 18.101562 27.101562 C 17.480469 27.101562 16.863281 27.042969 16.253906 26.921875 C 15.640625 26.800781 15.046875 26.617188 14.472656 26.378906 C 13.898438 26.140625 13.351562 25.851562 12.832031 25.503906 C 12.316406 25.15625 11.835938 24.765625 11.394531 24.324219 C 10.953125 23.882812 10.5625 23.40625 10.214844 22.886719 C 9.867188 22.367188 9.578125 21.820312 9.339844 21.246094 C 9.101562 20.671875 8.921875 20.078125 8.796875 19.46875 C 8.675781 18.855469 8.617188 18.238281 8.617188 17.617188 C 8.617188 16.992188 8.675781 16.375 8.796875 15.765625 C 8.921875 15.15625 9.101562 14.5625 9.339844 13.984375 C 9.578125 13.410156 9.867188 12.863281 10.214844 12.347656 C 10.5625 11.828125 10.953125 11.347656 11.394531 10.910156 C 11.835938 10.46875 12.316406 10.074219 12.832031 9.730469 C 13.351562 9.382812 13.898438 9.089844 14.472656 8.851562 C 15.046875 8.613281 15.640625 8.433594 16.253906 8.3125 C 16.863281 8.191406 17.480469 8.128906 18.101562 8.128906 C 18.726562 8.128906 19.34375 8.191406 19.953125 8.3125 C 20.5625 8.433594 21.15625 8.613281 21.734375 8.851562 C 22.308594 9.089844 22.855469 9.382812 23.375 9.730469 C 23.890625 10.074219 24.371094 10.46875 24.8125 10.910156 C 25.25 11.347656 25.644531 11.828125 25.992188 12.347656 C 26.335938 12.863281 26.628906 13.410156 26.867188 13.984375 C 27.105469 14.5625 27.285156 15.15625 27.40625 15.765625 C 27.527344 16.375 27.589844 16.992188 27.589844 17.617188 Z M 27.589844 17.617188 " fill-opacity="1" fill-rule="nonzero"/></g><path fill="#ffffff" d="M 22.574219 14.605469 C 22.574219 14.421875 22.308594 14.421875 22.308594 14.605469 L 22.308594 22.652344 C 22.308594 22.757812 22.265625 22.863281 22.1875 22.9375 C 22.113281 23.011719 22.011719 23.058594 21.898438 23.058594 L 14.300781 23.058594 C 14.1875 23.058594 14.085938 23.011719 14.011719 22.9375 L 13.917969 23.03125 L 14.011719 22.9375 C 13.9375 22.863281 13.890625 22.765625 13.890625 22.652344 L 13.890625 12.582031 C 13.890625 12.355469 14.074219 12.167969 14.300781 12.167969 L 19.875 12.167969 C 20.058594 12.167969 20.058594 11.898438 19.875 11.898438 L 14.300781 11.898438 C 13.933594 11.898438 13.625 12.207031 13.625 12.582031 L 13.625 22.652344 C 13.625 22.832031 13.699219 23.003906 13.824219 23.125 C 13.945312 23.253906 14.121094 23.328125 14.300781 23.328125 L 21.898438 23.328125 C 22.085938 23.328125 22.253906 23.253906 22.378906 23.125 L 22.28125 23.03125 L 22.378906 23.125 C 22.5 23.003906 22.574219 22.832031 22.574219 22.652344 Z M 22.574219 14.605469 " fill-opacity="1" fill-rule="nonzero"/><path fill="#ffffff" d="M 19.96875 11.9375 L 22.542969 14.503906 C 22.621094 14.589844 22.5625 14.738281 22.441406 14.738281 L 20.417969 14.738281 C 20.050781 14.738281 19.742188 14.429688 19.742188 14.054688 L 19.742188 12.03125 C 19.742188 11.914062 19.890625 11.859375 19.96875 11.9375 Z M 22.121094 14.46875 L 20.011719 12.359375 L 20.011719 14.054688 C 20.011719 14.28125 20.199219 14.46875 20.417969 14.46875 Z M 22.121094 14.46875 " fill-opacity="1" fill-rule="nonzero"/><path fill="#ffffff" d="M 13.757812 17.25 L 20.699219 17.25 C 20.882812 17.25 21.046875 17.320312 21.167969 17.441406 L 21.074219 17.535156 L 21.167969 17.441406 C 21.289062 17.5625 21.371094 17.730469 21.371094 17.917969 L 21.371094 20.421875 C 21.371094 20.609375 21.289062 20.777344 21.167969 20.898438 L 21.074219 20.804688 L 21.167969 20.898438 C 21.046875 21.015625 20.882812 21.089844 20.699219 21.089844 L 13.757812 21.089844 C 13.683594 21.089844 13.625 21.039062 13.625 20.957031 L 13.625 17.382812 C 13.625 17.308594 13.683594 17.25 13.757812 17.25 Z M 20.699219 17.515625 L 13.890625 17.515625 L 13.890625 20.824219 L 20.699219 20.824219 C 20.808594 20.824219 20.90625 20.78125 20.980469 20.710938 C 21.054688 20.636719 21.101562 20.535156 21.101562 20.421875 L 21.101562 17.917969 C 21.101562 17.804688 21.054688 17.703125 20.980469 17.628906 C 20.90625 17.554688 20.808594 17.515625 20.699219 17.515625 Z M 20.699219 17.515625 " fill-opacity="1" fill-rule="nonzero"/><path fill="#ffffff" d="M 14.816406 20.207031 L 14.816406 18.132812 C 15.042969 18.132812 15.726562 18.117188 15.914062 18.152344 C 16.484375 18.253906 16.503906 18.886719 16.234375 19.183594 C 16.015625 19.417969 15.472656 19.363281 15.089844 19.363281 L 15.089844 20.207031 Z M 15.089844 19.117188 C 15.359375 19.117188 15.847656 19.164062 16.007812 19.023438 C 16.1875 18.863281 16.15625 18.464844 15.878906 18.394531 C 15.773438 18.367188 15.238281 18.378906 15.089844 18.378906 Z M 16.75 20.207031 L 16.75 18.132812 C 16.992188 18.132812 17.632812 18.117188 17.835938 18.164062 C 18.644531 18.347656 18.625 19.699219 18.074219 20.066406 C 17.914062 20.171875 17.707031 20.207031 17.5 20.207031 Z M 17.023438 19.960938 C 17.558594 19.960938 17.960938 20.046875 18.128906 19.550781 C 18.238281 19.214844 18.214844 18.582031 17.816406 18.417969 C 17.660156 18.359375 17.234375 18.378906 17.023438 18.378906 Z M 18.832031 20.207031 L 18.832031 18.132812 L 19.609375 18.132812 C 19.871094 18.132812 20.089844 18.183594 20.21875 18.394531 C 20.378906 18.652344 20.292969 18.960938 20.003906 19.101562 C 20.558594 19.261719 20.519531 20.03125 19.957031 20.171875 C 19.734375 20.226562 19.09375 20.207031 18.832031 20.207031 Z M 19.105469 19.003906 C 19.261719 19.003906 19.695312 19.015625 19.816406 18.980469 C 20.117188 18.886719 20.070312 18.480469 19.835938 18.40625 C 19.703125 18.367188 19.28125 18.378906 19.105469 18.378906 Z M 19.105469 19.960938 C 19.226562 19.960938 19.722656 19.964844 19.808594 19.953125 C 20.21875 19.878906 20.191406 19.382812 19.890625 19.285156 C 19.734375 19.238281 19.300781 19.25 19.105469 19.25 Z M 19.105469 19.960938 " fill-opacity="1" fill-rule="nonzero"/><path fill="#ffffff" d="M 14.613281 16.378906 C 14.441406 16.378906 14.441406 16.644531 14.613281 16.644531 L 20.378906 16.644531 C 20.554688 16.644531 20.554688 16.378906 20.378906 16.378906 Z M 14.613281 16.378906 " fill-opacity="1" fill-rule="nonzero"/><path fill="#ffffff" d="M 14.613281 15.351562 C 14.441406 15.351562 14.441406 15.621094 14.613281 15.621094 L 20.378906 15.621094 C 20.554688 15.621094 20.554688 15.351562 20.378906 15.351562 Z M 14.613281 15.351562 " fill-opacity="1" fill-rule="nonzero"/><g fill="#ffffff" fill-opacity="1"><g transform="translate(30.294931, 31.47568)"><g><path d="M 0.25 0.015625 C 0.21875 0.015625 0.191406 0.00390625 0.171875 -0.015625 C 0.148438 -0.0351562 0.140625 -0.0664062 0.140625 -0.109375 C 0.140625 -0.140625 0.148438 -0.164062 0.171875 -0.1875 C 0.191406 -0.207031 0.21875 -0.21875 0.25 -0.21875 C 0.289062 -0.21875 0.320312 -0.207031 0.34375 -0.1875 C 0.363281 -0.164062 0.375 -0.140625 0.375 -0.109375 C 0.375 -0.0664062 0.363281 -0.0351562 0.34375 -0.015625 C 0.320312 0.00390625 0.289062 0.015625 0.25 0.015625 Z M 0.25 0.015625 "/></g></g></g></svg>